<?xml version="1.0" encoding="utf-8"?>
<!-- Generator: Adobe Illustrator 19.0.0, SVG Export Plug-In . SVG Version: 6.00 Build 0)  -->
<svg version="1.1" id="Calque_1" xmlns="http://www.w3.org/2000/svg" xmlns:xlink="http://www.w3.org/1999/xlink" x="0px" y="0px"
	 viewBox="0 0 400 400" style="enable-background:new 0 0 400 400;" xml:space="preserve">
<style type="text/css">
	.st0{fill:#FFFFFF;}
</style>
<path id="XMLID_13_" class="st0" d="M78.4,226.4c5.2,0,9.3-1.7,12.5-5.2c3.2-3.4,4.8-8.8,4.8-16.1V150H108c6.2,0,11.3,0.8,15.4,2.5
	c4.1,1.6,8.1,4.7,12,9.1c3.9,4.5,8.4,10.9,13.4,19.5l9.3,15.4l25.4-25.4c-2.7-3.7-5.5-7.2-8.5-10.7c-5.6-6.4-11.5-11.2-17.7-14.5
	c14.7-3.2,25.6-8.6,32.9-16.3c7.2-7.7,10.8-17.9,10.8-30.7c0-6.2-1.1-12.2-3.2-17.8c-2.2-5.6-5.3-10.5-9.4-14.7
	c-4.1-4.2-8.9-7.5-14.3-9.7c-4.5-2-9.5-3.4-15-4c-5.5-0.7-12.2-1-20-1H82.3c-7.5,0-12.9,1.7-16.3,5c-3.4,3.4-5,8.8-5,16.3v132.2
	c0,7,1.5,12.2,4.6,15.8S72.9,226.4,78.4,226.4z M95.8,77.8h32.1c12,0,20,0.9,24,2.6c4.3,1.8,7.7,4.5,10.1,8.1
	c2.4,3.6,3.6,7.8,3.6,12.6c0,6.1-1.5,10.9-4.5,14.4c-3,3.5-7.4,5.9-13.1,7.4c-5.7,1.4-12.7,2.2-21.1,2.2H95.8V77.8z"/>
<path id="XMLID_2_" class="st0" d="M91,329.8c-4.5,0-9-1.7-12.4-5.1c-6.8-6.8-6.8-17.9,0-24.7L307,71.5c6.8-6.8,17.9-6.8,24.7,0
	c6.8,6.8,6.8,17.9,0,24.7L103.4,324.7C100,328.1,95.5,329.8,91,329.8z"/>
<path id="XMLID_36_" class="st0" d="M333.6,169.8c-2.5-1.5-5.3-2.2-8.3-2.2c-4.1,0-7.3,1-9.6,2.9c-2.3,1.9-4,4.1-5,6.4
	c-1,2.4-2.5,6.6-4.6,12.7l-39,116l-30.4-90.1l-26,26l26.2,71.3c1.5,4.3,3,8.4,4.5,12.2c1.5,3.8,3.2,7.2,5.2,10.3
	c2,3,4.6,5.4,7.9,7.3c3.2,1.8,7.2,2.8,11.9,2.8s8.7-0.9,11.9-2.8c3.2-1.9,5.8-4.3,7.8-7.2c2-2.9,3.7-6.3,5.2-10.2
	c1.5-3.9,3-7.9,4.5-12.2l41.6-112.3c0.7-2,1.4-4,2.1-5.9c0.7-1.9,1.3-3.9,1.8-5.9s0.7-3.8,0.7-5.6c0-2.5-0.7-5-2.2-7.4
	C338.1,173.3,336.1,171.3,333.6,169.8z"/>
</svg>
